<svg width="184" height="44" viewBox="0 0 184 44" fill="none" xmlns="http://www.w3.org/2000/svg">
<path d="M27.9693 14.1332C27.3025 11.4928 25.6566 9.20468 23.3654 7.73275C21.0742 6.26083 18.309 5.7152 15.6303 6.20646C12.9517 6.69772 10.5601 8.18912 8.9403 10.3783C7.32052 12.5675 6.59375 15.2908 6.90734 17.996C6.90734 17.996 7.20583 19.7166 7.81646 20.6921" stroke="#2B2C8B" stroke-width="2" stroke-linecap="round" stroke-linejoin="round"/>
<path d="M30.2523 33.3729C31.6297 33.372 32.9913 33.0793 34.2474 32.5142C35.5036 31.9492 36.6258 31.1244 37.5403 30.0944C38.4548 29.0643 39.1407 27.8523 39.553 26.538C39.9652 25.2237 40.0945 23.837 39.9322 22.4692C39.7699 21.1014 39.3198 19.7834 38.6115 18.6021C37.9031 17.4208 36.9526 16.4029 35.8225 15.6154C34.6925 14.8279 33.4084 14.2886 32.0549 14.0332C30.7014 13.7777 29.3091 13.8117 27.9697 14.1331L25.375 14.8393" stroke="#2B2C8B" stroke-width="2" stroke-linecap="round" stroke-linejoin="round"/>
<path d="M7.50391 19.8546C6.58479 19.9027 5.68988 20.2161 4.87808 20.7742C4.06629 21.3322 3.35601 22.1224 2.79401 23.0925C2.232 24.0627 1.83101 25.1909 1.61743 26.4029C1.40384 27.6149 1.38251 28.8832 1.55483 30.1243C1.72716 31.3654 2.08923 32.5511 2.61721 33.6036C3.1452 34.656 3.82713 35.5511 4.61811 36.2301C5.4091 36.9092 6.29122 37.3566 7.20639 37.5431C8.12156 37.7295 9.04905 37.6508 9.9278 37.3119L11.6262 36.5793" stroke="#2B2C8B" stroke-width="2" stroke-linecap="round" stroke-linejoin="round"/>
<path d="M29 21.0304L18.6875 31.0304L14 26.4849" stroke="#4042D0" stroke-width="2" stroke-linecap="round" stroke-linejoin="round"/>
<path d="M71.64 8.92C69.6933 8.09333 67.76 7.68 65.84 7.68C61.9467 7.68 60 9.12 60 12C60 13.2533 60.44 14.4267 61.32 15.52C62.2 16.5867 63.2667 17.5467 64.52 18.4C65.7733 19.2267 67.0267 20.08 68.28 20.96C69.5333 21.84 70.6 22.8933 71.48 24.12C72.36 25.3467 72.8 26.68 72.8 28.12C72.8 30.5467 71.9867 32.3867 70.36 33.64C68.7333 34.8667 66.48 35.48 63.6 35.48C60.7467 35.48 58.3067 34.7467 56.28 33.28L57.24 31.84C59.16 33.0933 61.2667 33.72 63.56 33.72C65.8533 33.72 67.6133 33.2667 68.84 32.36C70.0667 31.4267 70.68 30.0933 70.68 28.36C70.68 27.16 70.24 26.0267 69.36 24.96C68.48 23.8667 67.4133 22.8933 66.16 22.04C64.9067 21.16 63.6533 20.2667 62.4 19.36C61.1467 18.4533 60.08 17.3733 59.2 16.12C58.32 14.8667 57.88 13.52 57.88 12.08C57.88 10.1867 58.5733 8.69333 59.96 7.6C61.3733 6.48 63.2667 5.92 65.64 5.92C68.04 5.92 70.2667 6.4 72.32 7.36L71.64 8.92ZM92.675 25.08L88.555 35H86.515L98.555 6.2H99.675L111.755 35H109.595L105.475 25.08H92.675ZM98.995 9.4C98.9683 9.42666 98.915 9.58666 98.835 9.88C98.4617 11.0267 98.1017 12 97.755 12.8L93.355 23.44H104.795L100.395 12.84C99.4617 10.8133 98.995 9.66666 98.995 9.4Z" fill="#212529"/>
<path d="M137.198 29.2L146.798 6.4H148.838L136.518 35.24H135.398L123.038 6.4H125.198L134.798 29.12C135.465 30.7467 135.878 31.8667 136.038 32.48C136.252 31.6267 136.638 30.5333 137.198 29.2ZM163.886 25.08L159.766 35H157.726L169.766 6.2H170.886L182.966 35H180.806L176.686 25.08H163.886ZM170.206 9.4C170.179 9.42666 170.126 9.58666 170.046 9.88C169.673 11.0267 169.313 12 168.966 12.8L164.566 23.44H176.006L171.606 12.84C170.673 10.8133 170.206 9.66666 170.206 9.4Z" fill="#2B2C8B"/>
</svg>
