<svg width="25" height="22" viewBox="0 0 25 22" fill="none" xmlns="http://www.w3.org/2000/svg">
<rect width="25" height="22" rx="4" fill="#FDFDFD"/>
<path d="M7.69 12.38C8.13822 12.38 8.56807 12.2019 8.88501 11.885C9.20195 11.5681 9.38 11.1382 9.38 10.69C9.38 10.2418 9.20195 9.81193 8.88501 9.49499C8.56807 9.17805 8.13822 9 7.69 9C7.24178 9 6.81193 9.17805 6.49499 9.49499C6.17805 9.81193 6 10.2418 6 10.69C6 11.1382 6.17805 11.5681 6.49499 11.885C6.81193 12.2019 7.24178 12.38 7.69 12.38Z" fill="#070708"/>
<path d="M13.0709 12.38C13.5191 12.38 13.9489 12.2019 14.2659 11.885C14.5828 11.5681 14.7609 11.1382 14.7609 10.69C14.7609 10.2418 14.5828 9.81193 14.2659 9.49499C13.9489 9.17805 13.5191 9 13.0709 9C12.6226 9 12.1928 9.17805 11.8758 9.49499C11.5589 9.81193 11.3809 10.2418 11.3809 10.69C11.3809 11.1382 11.5589 11.5681 11.8758 11.885C12.1928 12.2019 12.6226 12.38 13.0709 12.38Z" fill="#070708"/>
<path d="M18.4498 12.38C18.898 12.38 19.3278 12.2019 19.6448 11.885C19.9617 11.5681 20.1398 11.1382 20.1398 10.69C20.1398 10.2418 19.9617 9.81193 19.6448 9.49499C19.3278 9.17805 18.898 9 18.4498 9C18.0015 9 17.5717 9.17805 17.2548 9.49499C16.9378 9.81193 16.7598 10.2418 16.7598 10.69C16.7598 11.1382 16.9378 11.5681 17.2548 11.885C17.5717 12.2019 18.0015 12.38 18.4498 12.38Z" fill="#070708"/>
</svg>
