<svg width="24" height="24" viewBox="0 0 24 24" fill="none" xmlns="http://www.w3.org/2000/svg">
<path d="M21 5.97998C17.67 5.64998 14.32 5.47998 10.98 5.47998C9 5.47998 7.02 5.57998 5.04 5.77998L3 5.97998" stroke="#292D32" stroke-width="1.5" stroke-linecap="round" stroke-linejoin="round"/>
<path d="M8.5 4.97L8.72 3.66C8.88 2.71 9 2 10.69 2H13.31C15 2 15.13 2.75 15.28 3.67L15.5 4.97" stroke="#292D32" stroke-width="1.5" stroke-linecap="round" stroke-linejoin="round"/>
<path d="M18.8504 9.13989L18.2004 19.2099C18.0904 20.7799 18.0004 21.9999 15.2104 21.9999H8.79039C6.00039 21.9999 5.91039 20.7799 5.80039 19.2099L5.15039 9.13989" stroke="#292D32" stroke-width="1.5" stroke-linecap="round" stroke-linejoin="round"/>
<path d="M11.8 17.7875C11.6583 17.7875 11.5397 17.7395 11.444 17.6435C11.348 17.5478 11.3 17.4292 11.3 17.2875V11.7L8.8625 14.1375C8.7625 14.2375 8.64367 14.2875 8.506 14.2875C8.36867 14.2875 8.25 14.2375 8.15 14.1375C8.05 14.0375 8 13.9208 8 13.7875C8 13.6542 8.05 13.5375 8.15 13.4375L11.45 10.1375C11.5 10.0875 11.5542 10.052 11.6125 10.031C11.6708 10.0103 11.7333 10 11.8 10C11.8667 10 11.9313 10.0103 11.994 10.031C12.0563 10.052 12.1083 10.0875 12.15 10.1375L15.45 13.4375C15.55 13.5375 15.6 13.6542 15.6 13.7875C15.6 13.9208 15.55 14.0375 15.45 14.1375C15.35 14.2375 15.2312 14.2875 15.0935 14.2875C14.9562 14.2875 14.8375 14.2375 14.7375 14.1375L12.3 11.7V17.2875C12.3 17.4292 12.2522 17.5478 12.1565 17.6435C12.0605 17.7395 11.9417 17.7875 11.8 17.7875Z" fill="#292D32"/>
</svg>
